<svg id="visual" viewBox="0 0 900 600" width="900" height="600" xmlns="http://www.w3.org/2000/svg" xmlns:xlink="http://www.w3.org/1999/xlink" version="1.1"><rect x="0" y="0" width="900" height="600" fill="#001220"></rect><path d="M0 390L21.5 395.2C43 400.3 86 410.7 128.8 414.7C171.7 418.7 214.3 416.3 257.2 407.5C300 398.7 343 383.3 385.8 384.2C428.7 385 471.3 402 514.2 407C557 412 600 405 642.8 407.7C685.7 410.3 728.3 422.7 771.2 423.8C814 425 857 415 878.5 410L900 405L900 601L878.5 601C857 601 814 601 771.2 601C728.3 601 685.7 601 642.8 601C600 601 557 601 514.2 601C471.3 601 428.7 601 385.8 601C343 601 300 601 257.2 601C214.3 601 171.7 601 128.8 601C86 601 43 601 21.5 601L0 601Z" fill="#fa7268"></path><path d="M0 456L21.5 458C43 460 86 464 128.8 459.2C171.7 454.3 214.3 440.7 257.2 434.8C300 429 343 431 385.8 433.5C428.7 436 471.3 439 514.2 440.8C557 442.7 600 443.3 642.8 442.7C685.7 442 728.3 440 771.2 444.8C814 449.7 857 461.3 878.5 467.2L900 473L900 601L878.5 601C857 601 814 601 771.2 601C728.3 601 685.7 601 642.8 601C600 601 557 601 514.2 601C471.3 601 428.7 601 385.8 601C343 601 300 601 257.2 601C214.3 601 171.7 601 128.8 601C86 601 43 601 21.5 601L0 601Z" fill="#ef5f67"></path><path d="M0 482L21.5 475C43 468 86 454 128.8 454.2C171.7 454.3 214.3 468.7 257.2 468.8C300 469 343 455 385.8 448.7C428.7 442.3 471.3 443.7 514.2 451.5C557 459.3 600 473.7 642.8 481.2C685.7 488.7 728.3 489.3 771.2 481.7C814 474 857 458 878.5 450L900 442L900 601L878.5 601C857 601 814 601 771.2 601C728.3 601 685.7 601 642.8 601C600 601 557 601 514.2 601C471.3 601 428.7 601 385.8 601C343 601 300 601 257.2 601C214.3 601 171.7 601 128.8 601C86 601 43 601 21.5 601L0 601Z" fill="#e34c67"></path><path d="M0 497L21.5 498.7C43 500.3 86 503.7 128.8 501.7C171.7 499.7 214.3 492.3 257.2 495.3C300 498.3 343 511.7 385.8 518.2C428.7 524.7 471.3 524.3 514.2 527C557 529.7 600 535.3 642.8 537.2C685.7 539 728.3 537 771.2 533.5C814 530 857 525 878.5 522.5L900 520L900 601L878.5 601C857 601 814 601 771.2 601C728.3 601 685.7 601 642.8 601C600 601 557 601 514.2 601C471.3 601 428.7 601 385.8 601C343 601 300 601 257.2 601C214.3 601 171.7 601 128.8 601C86 601 43 601 21.5 601L0 601Z" fill="#d53867"></path><path d="M0 566L21.5 560.3C43 554.7 86 543.3 128.8 540.2C171.7 537 214.3 542 257.2 547C300 552 343 557 385.8 558.7C428.7 560.3 471.3 558.7 514.2 559.7C557 560.7 600 564.3 642.8 561.8C685.7 559.3 728.3 550.7 771.2 548.5C814 546.3 857 550.7 878.5 552.8L900 555L900 601L878.5 601C857 601 814 601 771.2 601C728.3 601 685.7 601 642.8 601C600 601 557 601 514.2 601C471.3 601 428.7 601 385.8 601C343 601 300 601 257.2 601C214.3 601 171.7 601 128.8 601C86 601 43 601 21.5 601L0 601Z" fill="#c62368"></path></svg>