<svg xmlns="http://www.w3.org/2000/svg" version="1.1" xmlns:xlink="http://www.w3.org/1999/xlink" xmlns:svgjs="http://svgjs.com/svgjs" width="1440" height="560" preserveAspectRatio="none" viewBox="0 0 1440 560">
    <g mask="url(&quot;#SvgjsMask1014&quot;)" fill="none">
        <rect width="1440" height="560" x="0" y="0" fill="url(#SvgjsLinearGradient1015)"></rect>
        <path d="M1058.126,435.504C1113.013,437.384,1166.415,410.677,1193.672,362.999C1220.746,315.641,1212.884,258.364,1186.778,210.465C1159.316,160.08,1115.498,115.422,1058.126,114.307C999.199,113.162,946.944,152.613,920.516,205.293C896.495,253.174,910.275,308.256,937.76,354.236C964.382,398.773,1006.269,433.728,1058.126,435.504" fill="rgba(28, 83, 142, 0.4)" class="triangle-float2"></path>
        <path d="M505.397,212.089C553.148,210.609,585.771,168.116,607.245,125.44C626.254,87.664,628.43,44.407,608.557,7.079C587.345,-32.764,550.447,-63.041,505.397,-65.864C455.135,-69.013,402.152,-51.122,377.121,-7.422C352.203,36.079,366.703,88.827,391.997,132.11C417.011,174.914,455.844,213.624,505.397,212.089" fill="rgba(28, 83, 142, 0.4)" class="triangle-float1"></path>
        <path d="M66.247,409.204C107.963,409.159,150.572,395.049,171.708,359.084C193.082,322.713,186.007,277.766,164.983,241.191C143.88,204.477,108.56,173.907,66.247,175.61C26.013,177.23,0.489,213.734,-19.616,248.623C-39.68,283.442,-58.561,323.876,-39.612,359.314C-19.898,396.183,24.438,409.25,66.247,409.204" fill="rgba(28, 83, 142, 0.4)" class="triangle-float1"></path>
        <path d="M1428.448,593.719C1470.164,592.083,1507.019,568.944,1528.306,533.031C1550.059,496.331,1557.115,450.344,1535.083,413.812C1513.63,378.239,1469.987,367.878,1428.448,367.454C1385.947,367.02,1341.328,376.083,1317.974,411.595C1292.474,450.371,1289.964,501.755,1314.033,541.435C1337.341,579.86,1383.541,595.48,1428.448,593.719" fill="rgba(28, 83, 142, 0.4)" class="triangle-float2"></path>
    </g>
    <defs>
        <mask id="SvgjsMask1014">
            <rect width="1440" height="560" fill="#ffffff"></rect>
        </mask>
        <linearGradient x1="15.28%" y1="-39.29%" x2="84.72%" y2="139.29%" gradientUnits="userSpaceOnUse" id="SvgjsLinearGradient1015">
            <stop stop-color="#0e2a47" offset="0"></stop>
            <stop stop-color="#00459e" offset="1"></stop>
        </linearGradient>
        <style>
            @keyframes float1 {
                0%{transform: translate(0, 0)}
                50%{transform: translate(-10px, 0)}
                100%{transform: translate(0, 0)}
            }

            .triangle-float1 {
                animation: float1 5s infinite;
            }

            @keyframes float2 {
                0%{transform: translate(0, 0)}
                50%{transform: translate(-5px, -5px)}
                100%{transform: translate(0, 0)}
            }

            .triangle-float2 {
                animation: float2 4s infinite;
            }

            @keyframes float3 {
                0%{transform: translate(0, 0)}
                50%{transform: translate(0, -10px)}
                100%{transform: translate(0, 0)}
            }

            .triangle-float3 {
                animation: float3 6s infinite;
            }
        </style>
    </defs>
</svg>